<svg width="43" height="44" xmlns="http://www.w3.org/2000/svg" xmlns:xlink="http://www.w3.org/1999/xlink" xmlns:svgjs="http://svgjs.com/svgjs" viewBox="111 399 43 44"><svg width="15" height="15" xmlns="http://www.w3.org/2000/svg" xmlns:xlink="http://www.w3.org/1999/xlink" xmlns:svgjs="http://svgjs.com/svgjs" viewBox="0.083 0 14.835 15" fill="#fff" x="122" y="407"><svg xmlns="http://www.w3.org/2000/svg" xmlns:xlink="http://www.w3.org/1999/xlink" width="15" height="15" viewBox="1.616 1.731 12.732 12.874"><path paint-order="stroke fill markers" fill-rule="evenodd" d="M13.642 1.73L1.616 13.892l.706.714 12.026-12.16-.706-.714z"/></svg></svg><svg width="15" height="15" xmlns="http://www.w3.org/2000/svg" xmlns:xlink="http://www.w3.org/1999/xlink" xmlns:svgjs="http://svgjs.com/svgjs" viewBox="0.083 0 14.835 15" fill="#fff" x="122" y="419"><svg xmlns="http://www.w3.org/2000/svg" xmlns:xlink="http://www.w3.org/1999/xlink" width="15" height="15" viewBox="1.708 1.326 12.89 13.033"><path paint-order="stroke fill markers" fill-rule="evenodd" d="M1.708 2.043L13.89 14.359l.709-.717L2.417 1.326l-.709.717z"/></svg></svg><svg width="43" height="44" xmlns="http://www.w3.org/2000/svg" xmlns:xlink="http://www.w3.org/1999/xlink" xmlns:svgjs="http://svgjs.com/svgjs" viewBox="0 0.261 43 43.479" fill="none" stroke-miterlimit="100" stroke="#fff" x="111" y="399"><svg xmlns="http://www.w3.org/2000/svg" width="43" height="44" viewBox="2 2 42.016 42.483"><path paint-order="stroke fill markers" d="M23.008 2C11.405 2 2 11.51 2 23.242c0 11.73 9.405 21.241 21.008 21.241 11.602 0 21.007-9.51 21.007-21.241C44.015 11.51 34.61 2 23.008 2z"/></svg></svg></svg>