<svg xmlns="http://www.w3.org/2000/svg" width="512" height="512" viewBox="0 0 512.001 512.001"><path d="M278.063 256.002l173.049-173.05c6.092-6.092 6.092-15.97 0-22.062-6.093-6.092-15.97-6.092-22.063 0L256 233.94 82.952 60.89c-6.093-6.092-15.97-6.092-22.063 0-6.091 6.093-6.092 15.97 0 22.063L233.938 256 60.889 429.051c-6.092 6.092-6.092 15.97 0 22.062a15.552 15.552 0 0011.032 4.568c3.993 0 7.985-1.523 11.031-4.568L256 278.064l173.05 173.049c3.045 3.045 7.038 4.568 11.031 4.568s7.985-1.523 11.032-4.568c6.092-6.093 6.092-15.971 0-22.063l-173.05-173.048z" data-original="#000000" xmlns="http://www.w3.org/2000/svg"/></svg>