<svg width="20" height="20" viewBox="0 0 512 512"><path xmlns="http://www.w3.org/2000/svg" d="M471.383 79.578C444.879 50.832 408.512 35 368.973 35c-29.555 0-56.621 9.344-80.45 27.77C276.5 72.07 265.605 83.45 256 96.73c-9.602-13.277-20.5-24.66-32.527-33.96C199.648 44.344 172.582 35 143.027 35c-39.539 0-75.91 15.832-102.414 44.578C14.426 107.988 0 146.801 0 188.871c0 43.3 16.137 82.938 50.781 124.742 30.992 37.395 75.535 75.356 127.117 119.313 17.614 15.012 37.579 32.027 58.309 50.152A30.023 30.023 0 00256 490.516a30.03 30.03 0 0019.785-7.43c20.73-18.129 40.707-35.152 58.328-50.172 51.575-43.95 96.117-81.906 127.11-119.305C495.867 271.81 512 232.172 512 188.867c0-42.066-14.426-80.879-40.617-109.289zm0 0" data-original="#000000"/></svg>